<svg width="61" height="51" fill="none" xmlns="http://www.w3.org/2000/svg">
  <g clip-path="url(#clip0_10912_245709)" fill="#E6EDF4">
    <path
      d="M2.86 42.036a2.401 2.401 0 00.232 3.042 1.73 1.73 0 002.117.103c.207-.146.378-.336.5-.556l5.87-8.595c4.622-6.8-4.004-13.564-8.273-7.31a2.329 2.329 0 00.265 2.992 1.684 1.684 0 002.093.135 1.63 1.63 0 00.496-.554c.128-.19.3-.35.5-.465a1.54 1.54 0 011.903.295l.058.051c.71.646.745 1.349.115 2.266l-5.875 8.596zm2.19 1.994a.906.906 0 01-.645.453.936.936 0 01-.764-.21 1.296 1.296 0 01-.121-1.637l.358-.521c.704.277 1.46.408 2.218.385L5.05 44.03zm1.786-2.612a4.825 4.825 0 01-2.375-.159l1.612-2.357c.817.15 1.656.15 2.473 0l-1.71 2.516zm4.506-11.853c.589.977.813 2.125.635 3.247-.797.504-1.66.903-2.565 1.184a2.924 2.924 0 00.578-2.357 5.881 5.881 0 001.352-2.074zm-5.84 1.133a.873.873 0 01-.639.437.9.9 0 01-.743-.227 1.196 1.196 0 01-.364-1.054c.637.163 1.24.435 1.78.805l-.035.04zm.762-.736a7.134 7.134 0 00-2.017-1.02 4.406 4.406 0 012.207-1.473 5.927 5.927 0 011.156 2.164 2.188 2.188 0 00-1.346.329zm2.888.407l-.057-.05a2.887 2.887 0 00-.491-.363A8.475 8.475 0 007.5 27.31c.61 0 1.212.13 1.766.38.553.25 1.045.615 1.44 1.07a5.209 5.209 0 01-1.155 2.029 3.218 3.218 0 00-.381-.42h-.018zm2.462 3.74c-.186.466-.422.91-.705 1.326L9.349 37.7c-.865.25-1.77.341-2.67.267l1.953-2.862a7.529 7.529 0 002.999-.997h-.018zM57.255 3.62a1.11 1.11 0 00-.192-.854 1.148 1.148 0 00-.756-.466 2.755 2.755 0 00-.89-.068 6.803 6.803 0 00-4.205 1.96A6.677 6.677 0 0048.53.432a2.675 2.675 0 00-.803-.374 1.177 1.177 0 00-1.25.313 1.13 1.13 0 00-.23.384c-.294.906.313 2.606 2.133 3.728L43.759 3.28 42.603 7.53l.93.238-1.871 6.963 12.375 3.224 1.889-6.98.924.244 1.156-4.25-4.483-1.167c2.143-.074 3.53-1.27 3.732-2.181zm-1.733-.447a1.99 1.99 0 01.577.04c.266.068.249.158.237.226-.121.567-1.623 1.7-4.506 1.507.97-.999 2.27-1.627 3.668-1.773h.024zm-3.93 3.116l-.658 2.425-1.854-.481.653-2.431 1.86.487zm-4.407-5.23c0-.067.052-.158.317-.084.186.053.361.135.52.243a5.822 5.822 0 012.311 3.343c-2.628-1.23-3.35-2.958-3.171-3.501h.023zm-2.71 3.4l4.333 1.133-.658 2.425-4.333-1.133.658-2.425zm-1.617 9.632l1.64-6.068 3.72.958-1.675 6.068-3.685-.958zm4.621 1.213l1.647-6.074 1.236.323-1.646 6.068-1.237-.317zm5.882 1.53l-3.72-.97 1.64-6.068 3.715.97-1.635 6.068zm3.466-9.168l-.658 2.43-4.328-1.132.653-2.431 4.333 1.133zM11.977 18.647a7.686 7.686 0 004.558-3.685 7.439 7.439 0 00.567-5.766 7.584 7.584 0 00-2.778-3.862 7.83 7.83 0 00-4.57-1.498l-.446-1.44a1.135 1.135 0 00-.442-.582 1.172 1.172 0 00-.713-.2A1.316 1.316 0 007.494.96a1.353 1.353 0 00-.936-.065 1.325 1.325 0 00-.731.559 1.282 1.282 0 00-.181.892 1.146 1.146 0 00-.598.552c-.123.25-.15.535-.073.802l.445 1.428a7.609 7.609 0 00-2.96 3.754 7.448 7.448 0 00-.108 4.745 7.605 7.605 0 003.755 4.461 7.854 7.854 0 005.87.559zm-4.2-13.548a6.873 6.873 0 015.138.488A6.655 6.655 0 0116.2 9.491a6.509 6.509 0 01-.498 5.038 6.725 6.725 0 01-3.98 3.222 6.873 6.873 0 01-5.14-.485 6.655 6.655 0 01-3.289-3.906 6.509 6.509 0 01.5-5.04A6.725 6.725 0 017.777 5.1z"/>
    <path
      d="M11.694 16.624a5.233 5.233 0 001.794-.94 5.12 5.12 0 001.289-1.541 5.025 5.025 0 00.384-3.893.472.472 0 00-.224-.273.488.488 0 00-.354-.045.489.489 0 00-.274.222.473.473 0 00-.05.345 4.082 4.082 0 01-.31 3.162 4.217 4.217 0 01-2.497 2.022.486.486 0 00-.288.232.47.47 0 00-.036.363c.03.119.106.22.212.285a.488.488 0 00.354.06zM34.694 12.582c.025-.043.049-.086.07-.13.257-.57.274-1.217.046-1.799a2.377 2.377 0 00-1.26-1.307 2.447 2.447 0 00-1.83-.043 2.385 2.385 0 00-1.33 1.233c0 .04 0 .074-.035.108a5.339 5.339 0 00-.722.119c-1.89.481-3.466 2.102-4.674 4.816-.884 1.943-3.466 5.258-6.355 6.232l-1.311.42 6.5 2.833a2.31 2.31 0 00-.047 1.795c.227.581.68 1.05 1.26 1.304.58.252 1.24.269 1.833.046a2.384 2.384 0 001.332-1.236l6.494 2.833-.578-1.24c-1.155-2.743-.427-6.845.457-8.789 1.23-2.714 1.398-4.952.497-6.657a5.05 5.05 0 00-.347-.538zm-1.6-2.216c.248.111.453.298.585.533.13.235.181.505.143.77a4.792 4.792 0 00-2.19-.98 1.276 1.276 0 011.462-.323zM20.21 22.3a4.153 4.153 0 001.485-.975l1.196.521.52 1.848-3.2-1.394zm3.27-.199l2.6 1.133-2.207.278-.393-1.41zm3.634 4.465a1.235 1.235 0 01-.699.653 1.283 1.283 0 01-.965-.024 1.246 1.246 0 01-.662-.687c-.12-.306-.11-.646.027-.945l1.103.482 1.196.521zm-.722-1.57l-2.31-1.014 2.888-.362h.058l.64.283.284 1.745-1.56-.651zm2.08.913l-.277-1.745 2.738 1.195-2.224.652-.237-.102zm.936.408l1.86-.567-.092-.306 1.236.567c-.045.589.042 1.18.254 1.734l-3.258-1.428zm4.125-7.02a14.65 14.65 0 00-1.156 5.479l-4.922-2.148-4.83-2.107a14.906 14.906 0 003.392-4.505c1.08-2.385 2.31-3.768 3.876-4.164a3.747 3.747 0 012.392.192 3.653 3.653 0 011.762 1.598c.736 1.371.564 3.256-.514 5.655zM40.466 41.525h.046l4.108-.385v3.847h1.525l4.864-.515-2.166-3.729 4.252-.402a.791.791 0 00.578-.351.557.557 0 000-.567v-.079l-4.044-3.654-1.156-1.083 2.352-.623-3.346-3.054-1.242-1.133 1.918-.459-3.403-3.02 1.468-.17-1.248-.827.253-1.291L44 24.5l-1.236-.442.232 1.297-1.202.85 1.664.147-2.108 3.677 1.999.09-2.89 4.874 2.56.136-.762 1.286-2.421 4.142a.514.514 0 00-.11.34.558.558 0 00.226.43.818.818 0 00.514.198zm2.368-12.317l1.323-2.267 2.161 1.955-1.652.397-1.832-.085zm.185 7.62l1.48-2.487-2.537-.164 2.715-4.601 2.19 1.966 2.178 1.989-2.351.623 2.345 2.147 3.53 3.202-5.159.481 2.172 3.745-3.466.369h-.578v-3.91l-4.703.442 2.184-3.802zM27.432 42.22l-3.357-2.476-.005 4.175-3.357 1.7 3.917.8.838 4.447 2.31-3.78 4.415.38-3.08-3.314 1.681-3.632-3.362 1.7z"/>
  </g>
  <defs>
    <clipPath id="clip0_10912_245709">
      <path fill="#fff" d="M0 0h61v51H0z"/>
    </clipPath>
  </defs>
</svg>
