<svg xmlns="http://www.w3.org/2000/svg" viewBox="0 0 213.1 115.2">
  <path fill="#98B3CA" fill-opacity=".2" d="M36.4 51.3h21.5c.8 0 1.5-.7 1.5-1.5V35.4c0-.8-.7-1.5-1.5-1.5H36.4c-.8 0-1.5.7-1.5 1.5v14.4c.1.8.7 1.5 1.5 1.5zm-.2-15.9c0-.1.1-.3.3-.3H58c.1 0 .3.1.3.3v14.4c0 .1-.1.3-.3.3H36.4c-.1 0-.3-.1-.3-.3V35.4zm1.1-2.8H57c.3 0 .6-.3.6-.6s-.3-.6-.6-.6H37.3c-.3 0-.6.3-.6.6 0 .4.3.6.6.6zm1.9-3c0 .3.3.6.6.6h14.7c.3 0 .6-.3.6-.6s-.2-.6-.5-.6H39.8c-.3 0-.6.2-.6.6zM15.5 74.5c.4 0 .7-.1.9-.4l4.9-4.9c.5-.5.5-1.4 0-1.9l-4.9-4.9c-.3-.3-.6-.4-.9-.4-.4 0-.7.1-.9.4l-1 1c-.5.5-.5 1.4 0 1.9l3 3-3 3c-.5.5-.5 1.4 0 1.9l1 1c.2.2.5.3.9.3zm-1.1-2.4l3.8-3.8-3.8-3.8v-.2l1-1h.2l4.9 4.9v.1l-4.9 4.9h-.2l-1-1c-.1 0-.1-.1 0-.1zm7.9-7.8c0 .4.1.7.4.9l3 3-3 3c-.3.3-.4.6-.4.9 0 .4.1.7.4.9l1 1c.3.3.6.4.9.4s.7-.1.9-.4l4.9-5c.5-.5.5-1.4 0-1.9l-4.9-5c-.3-.3-.6-.4-.9-.4-.4 0-.7.1-.9.4l-1 1c-.3.5-.4.9-.4 1.2zm1.2-.1l1-1h.2l4.9 5v.1l-4.9 5h-.2l-1-1v-.2l3.8-3.8-3.8-3.8v-.3zm7.9 8.9l1 1c.3.3.6.4.9.4.4 0 .7-.1.9-.4l5-5c.5-.5.5-1.3 0-1.8l-5-5c-.3-.3-.6-.4-.9-.4-.4 0-.7.1-.9.4l-1 1c-.5.5-.5 1.4 0 1.9l3 3-3 3c-.5.5-.5 1.4 0 1.9zm.9-1l3.8-3.8-3.8-3.8v-.2l1-1h.2l5 5v.1l-5 5h-.2l-1-1c-.1-.2-.1-.3 0-.3zm84.4-31.2c.4 0 .7-.1.9-.4l3-3 3 3c.3.3.6.4.9.4.4 0 .7-.1.9-.4l1-1c.5-.5.5-1.4 0-1.9l-4.9-4.9-.4-.4H120l-.4.4-4.9 4.9c-.3.3-.4.6-.4.9 0 .4.1.7.4.9l1 1c.3.4.6.5 1 .5zm-1.1-2.5l4.9-4.9h.2l4.9 4.9v.2l-1 1h-.2l-3.8-3.8-3.8 3.8h-.2l-1-1c-.1 0-.1-.1 0-.2zm.1-7.1c.3.3.6.4.9.4s.7-.1.9-.4l3-3 3 3c.3.3.6.4.9.4.4 0 .7-.1.9-.4l1-1c.5-.5.5-1.4 0-1.9l-4.9-5-.4-.4h-1.1l-.4.4-4.9 5c-.3.3-.4.6-.4.9 0 .4.1.7.4.9l1.1 1.1zm-.1-2.1l4.9-5h.2l4.9 5v.2l-1 1h-.2l-3.8-3.8-3.8 3.8h-.2l-1-1c-.1 0-.1-.1 0-.2zm.1-6.7c.3.3.6.4.9.4s.7-.1.9-.4l3-3 3 3c.3.3.6.4.9.4.4 0 .7-.1.9-.4l1-1c.5-.5.5-1.4 0-1.9l-5-5-.4-.4h-1.1l-.4.4-5 5c-.3.3-.4.6-.4.9 0 .4.1.7.4.9l1.3 1.1zm-.1-2l5-5 5 5v.2l-1 1h-.2l-3.8-3.8-3.8 3.8h-.2l-1-1c-.1-.1-.1-.2 0-.2zm37 77.5c-.3-.3-.6-.4-.9-.4-.4 0-.7.1-.9.4l-1 1c-.3.3-.4.6-.4.9 0 .4.1.7.4.9l3 3-3 3c-.3.3-.4.6-.4.9 0 .4.1.7.4.9l1 1c.3.3.6.4.9.4.4 0 .7-.1.9-.4l4.9-5c.5-.5.5-1.4 0-1.9l-4.9-4.7zm4.1 6l-4.9 5h-.2l-1-1v-.2l3.8-3.8-3.8-3.8v-.2l1-1h.2l4.9 5c0-.1 0-.1 0 0zm5.1-6c-.3-.3-.6-.4-.9-.4-.4 0-.7.1-.9.4l-1 1c-.5.5-.5 1.4 0 1.9l3 3-3 3c-.5.5-.5 1.4 0 1.9l1 1c.3.3.6.4.9.4.4 0 .7-.1.9-.4l4.9-5c.5-.5.5-1.4 0-1.9l-4.9-4.9zm4 6l-4.9 5h-.2l-1-1v-.2l3.8-3.8-3.8-3.8v-.2l1-1h.2l4.9 5c.1-.1.1-.1 0 0z"/>
  <path fill="#98B3CA" fill-opacity=".2" d="M170.5 98c-.3-.3-.6-.4-.9-.4-.4 0-.7.1-.9.4l-1 1c-.5.5-.5 1.4 0 1.9l3 3-3 3c-.5.5-.5 1.4 0 1.9l1 1c.3.3.6.4.9.4.4 0 .7-.1.9-.4l4.9-5c.5-.5.5-1.4 0-1.9l-4.9-4.9zm4.1 6l-4.9 5h-.2l-1-1v-.2l3.8-3.8-3.8-3.8v-.2l1-1h.2l4.9 5c0-.1 0-.1 0 0zM74.1 47.4v2.4c0 .9.7 1.6 1.6 1.6h7.6c.7 0 1.3-.4 1.5-1.1h7.1l.7-.1v-9.9l-.1-.7h-7.7c-.2-.6-.8-1.1-1.5-1.1h-7.6c-.9 0-1.6.7-1.6 1.6v2.4h-2.9v4.8h2.9zm10.8-6.6h6.4V49h-6.4v-8.2zm-9.6-.7c0-.2.2-.3.3-.3h7.6c.2 0 .3.2.3.3v9.6c0 .2-.2.3-.3.3h-7.6c-.2 0-.3-.2-.3-.3v-9.6zm-2.9 3.6h1.7v2.4h-1.7v-2.4z"/>
  <path fill="#98B3CA" fill-opacity=".2" d="M88.7 41.3h-.8c-.7 0-1.2.6-1.2 1.2v.8c0 .7.6 1.2 1.2 1.2h.8c.7 0 1.2-.6 1.2-1.2v-.8c.1-.6-.5-1.2-1.2-1.2zm0 2.1h-.8v-.8h.8v.8zM99 39.7h-.8c-.7 0-1.2.6-1.2 1.2v7.8c0 .7.6 1.2 1.2 1.2h.8c.7 0 1.2-.6 1.2-1.2v-7.8c0-.7-.5-1.2-1.2-1.2zm0 9.1h-.8V41h.8v7.8zm-10.3-3.7h-.8c-.7 0-1.2.6-1.2 1.2v.8c0 .7.6 1.2 1.2 1.2h.8c.7 0 1.2-.6 1.2-1.2v-.8c.1-.6-.5-1.2-1.2-1.2zm0 2.1h-.8v-.8h.8v.8z"/>
  <path fill="#98B3CA" fill-opacity=".2" d="M101 37.4h-4.8c-.7 0-1.4.6-1.4 1.4v12.1c0 .7.6 1.4 1.4 1.4h4.8c.7 0 1.4-.6 1.4-1.4V38.8c0-.8-.6-1.4-1.4-1.4zm.1 13.5c0 .1-.1.1-.1.1h-4.8c-.1 0-.2 0-.2-.1V38.8c0-.1.1-.1.1-.1h4.8c.1 0 .1.1.1.1v12.1zM27 84c-7 0-12.6 5.7-12.6 12.7 0 7 5.7 12.7 12.6 12.7 7 0 12.6-5.7 12.6-12.7C39.6 89.7 34 84 27 84zm0 1.3c2.9 0 5.5 1.1 7.5 2.9L30.9 92c-1.1-.9-2.4-1.4-3.9-1.4-.8 0-1.5.2-2.2.4l-2.3-4.7c1.4-.7 2.9-1 4.5-1zm4.9 11.4c0 2.7-2.2 5-4.9 5s-4.9-2.2-4.9-5 2.2-5 4.9-5 4.9 2.3 4.9 5zm-10.5-10l2.3 4.7c-1.3.8-2.3 2.1-2.7 3.7L15.9 94c.8-3.1 2.8-5.7 5.5-7.3zm5.6 21.5c-6.3 0-11.4-5.1-11.4-11.4 0-.5 0-1 .1-1.5l5.2 1.2v.3c0 3.4 2.8 6.2 6.2 6.2s6.2-2.8 6.2-6.2c0-1.5-.5-2.8-1.4-3.9l3.6-3.9c1.9 2 3 4.7 3 7.7-.1 6.3-5.2 11.5-11.5 11.5z"/>
  <path fill="#98B3CA" fill-opacity=".2" d="M25.5 88.5c1.8-.3 3.6 0 5.2.8.1.1.2.1.3.1.2 0 .4-.1.5-.3.2-.3 0-.7-.2-.8-1.8-1-4-1.3-6-1-.3.1-.6.4-.5.7 0 .3.4.5.7.5zM102 66.7H81.6v-2L71 61.4h-9.3v.9H55c-.6 0-1.2.5-1.2 1.2v1.9c-.5.1-.9.6-.9 1.1v4.8c0 .6.4 1 .9 1.2v1.8c0 .6.5 1.2 1.2 1.2h6.7v.9h9.4L81.6 73v-2.3H102c2.4 0 4.4 2 4.4 4.4v11c0 2.4-2 4.4-4.4 4.4H81.7v-2.2L71 85.1h-9.3v.9H55c-.6 0-1.2.5-1.2 1.2V89c-.5.1-.9.6-.9 1.1V95c0 .6.4 1 .9 1.2V98c0 .6.5 1.2 1.2 1.2h6.7v.9h9.4l10.7-3.3v-2.1H102c4.6 0 8.4-3.8 8.4-8.4v-11c0-4.8-3.8-8.6-8.4-8.6zm-40.5-3.3v3.3h-1.8v-1.4h-4.8l-.1-1.7 6.7-.2zM54 71.3v-4.8h4.5v1.4h2.9v1.9h-2.9v1.4l-4.5.1zm.9 3v-1.8h4.9V71h1.8v3.2l-6.7.1zm7.9-8.2c1.5.1 2.6 1.3 2.6 2.8 0 1.5-1.2 2.7-2.6 2.8v-5.6zm17.6 6l-1.4.4v-1.7c0-.3-.3-.6-.6-.6s-.6.3-.6.6v2l-1.8.6v-2.6c0-.3-.3-.6-.6-.6s-.6.3-.6.6v2.9l-1.7.5v-3.5c0-.3-.3-.6-.6-.6s-.6.3-.6.6v3.9l-1.1.4h-.6v-4.2c0-.3-.3-.6-.6-.6s-.6.3-.6.6V75h-6.1v-2.3c2.1-.1 3.8-1.8 3.8-4s-1.7-3.9-3.8-4v-2.3H69v4.2c0 .3.3.6.6.6s.6-.3.6-.6v-4.2h.6l1.1.4v3.9c0 .3.3.6.6.6s.6-.3.6-.6v-3.5l1.7.5v2.9c0 .3.3.6.6.6s.6-.3.6-.6V64l1.7.5v2c0 .3.3.6.6.6s.6-.3.6-.6v-1.6l1.4.4v6.8zm-18.9 15v3.3h-1.8V89h-4.8l-.1-1.7 6.7-.2zM54 95v-4.8h4.5v1.4h2.9v1.9h-2.9v1.4L54 95zm.9 3v-1.8h4.9v-1.4h1.8V98h-6.7zm7.9-8.2c1.5.1 2.6 1.3 2.6 2.8 0 1.5-1.2 2.7-2.6 2.8v-5.6zm17.6 6l-1.4.4v-1.7c0-.3-.3-.6-.6-.6s-.6.3-.6.6v2l-1.8.6v-2.6c0-.3-.3-.6-.6-.6s-.6.3-.6.6v2.9l-1.7.5v-3.5c0-.3-.3-.6-.6-.6s-.6.3-.6.6v3.9l-1.1.4h-.6v-4.2c0-.3-.3-.6-.6-.6s-.6.3-.6.6v4.2h-6.1v-2.3c2.1-.1 3.8-1.8 3.8-4s-1.7-3.9-3.8-4v-2.3H69v4.2c0 .3.3.6.6.6s.6-.3.6-.6v-4.2h.6l1.1.4v3.9c0 .3.3.6.6.6s.6-.3.6-.6V87l1.7.5v2.9c0 .3.3.6.6.6s.6-.3.6-.6v-2.6l1.7.5v2c0 .3.3.6.6.6s.6-.3.6-.6v-1.6l1.4.4v6.7zm28.7-9.6c0 4-3.2 7.2-7.2 7.2H82v-1.6h20c3.1 0 5.6-2.5 5.6-5.6v-11c0-3.1-2.5-5.6-5.6-5.6H81.8V68H102c3.9 0 7.2 3.2 7.2 7.2v11zm22.1-20.6c-5.2 0-10.7 1.4-10.7 4-.1.1-.2.2-.2.4v15.7c0 2.6 5.5 4 10.7 4 .3 0 .6-.3.6-.6s-.3-.6-.6-.6c-5.9 0-9.5-1.6-9.5-2.8v-3.3c1.9 1.4 5.8 2.1 9.5 2.1.3 0 .6-.3.6-.6s-.3-.6-.6-.6c-5.9 0-9.5-1.6-9.5-2.8v-3.3c1.9 1.4 5.8 2.1 9.6 2.1 3.7 0 7.7-.7 9.6-2.1v1c0 .3.3.6.6.6s.6-.3.6-.6v-8.6c0-2.5-5.5-4-10.7-4zm0 1.3c5.9 0 9.5 1.6 9.5 2.8 0 1.2-3.6 2.8-9.5 2.8s-9.5-1.6-9.5-2.8c0-1.2 3.6-2.8 9.5-2.8zm9.5 8.4s-.1 0 0 0c0 1.2-3.6 2.8-9.6 2.8-5.9 0-9.6-1.6-9.6-2.8v-3.8c1.9 1.4 5.8 2.2 9.6 2.2 3.7 0 7.6-.7 9.5-2.1v3.7z"/>
  <path fill="#98B3CA" fill-opacity=".2" d="M143.4 84.4c.5-.6.5-1.5.1-2.2-.4-.7-1.1-1.1-1.9-1h-.3c-.3 0-.6-.1-.8-.4l-.1-.3c-.3-.7-1-1.2-1.8-1.2s-1.5.5-1.8 1.2l-.1.3c-.1.3-.4.5-.8.4h-.3c-.8-.1-1.5.3-1.9 1-.4.7-.4 1.5.1 2.2l.2.2c.2.3.2.6 0 .9l-.2.2c-.5.6-.5 1.5-.1 2.2.4.7 1.1 1.1 1.9 1h.3c.3 0 .6.1.8.4l.1.3c.3.7 1 1.2 1.8 1.2s1.5-.5 1.8-1.2l.1-.3c.1-.3.4-.5.8-.4h.3c.8.1 1.5-.3 1.9-1 .4-.7.4-1.5-.1-2.2l-.2-.2c-.2-.3-.2-.6 0-.9l.2-.2zm-1.1 1.9l.2.2c.2.2.2.6 0 .8-.2.3-.4.4-.7.4h-.3c-.9-.1-1.7.4-2 1.2l-.1.3c-.2.6-1.1.6-1.4 0l-.1-.3c-.3-.7-1-1.2-1.8-1.2h-.5c-.3 0-.6-.1-.7-.4-.2-.3-.1-.6 0-.8l.2-.2c.5-.7.5-1.6 0-2.3l-.2-.2c-.2-.2-.2-.6 0-.8.2-.3.4-.4.7-.4h.3c.9.1 1.7-.4 2-1.2l.1-.3c.2-.6 1.1-.6 1.4 0l.1.3c.3.8 1.2 1.3 2 1.2h.3c.3 0 .6.1.7.4.2.3.1.6 0 .8l-.2.2c-.5.6-.5 1.6 0 2.3z"/>
  <path fill="#98B3CA" fill-opacity=".2" d="M138.6 82.9c-1.2 0-2.2 1-2.2 2.2s1 2.2 2.2 2.2c1.2 0 2.2-1 2.2-2.2s-.9-2.2-2.2-2.2zm0 3.2c-.5 0-1-.4-1-1 0-.5.4-1 1-1 .5 0 1 .4 1 1s-.4 1-1 1zm52.1-11.2c0-1.1-.9-1.9-1.9-1.9s-1.9.9-1.9 1.9.9 1.9 1.9 1.9 1.9-.9 1.9-1.9zm-2.6 0c0-.4.3-.7.7-.7s.7.3.7.7c0 .4-.3.7-.7.7s-.7-.3-.7-.7zm5 1.9c1.1 0 1.9-.9 1.9-1.9s-.9-1.9-1.9-1.9-1.9.9-1.9 1.9.8 1.9 1.9 1.9zm0-2.6c.4 0 .7.3.7.7 0 .4-.3.7-.7.7s-.7-.3-.7-.7c0-.4.3-.7.7-.7zm-54.9-54.3c1 0 1.9-.8 1.9-1.9 0-1-.8-1.9-1.9-1.9-1 0-1.9.8-1.9 1.9 0 1 .9 1.9 1.9 1.9zm0-2.6c.4 0 .6.3.6.6s-.3.6-.6.6c-.4 0-.6-.3-.6-.6s.3-.6.6-.6zm20.3 2.6c1 0 1.9-.8 1.9-1.9 0-1-.8-1.9-1.9-1.9s-1.9.8-1.9 1.9c.1 1 .9 1.9 1.9 1.9zm0-2.6c.4 0 .6.3.6.6s-.3.6-.6.6-.6-.3-.6-.6.3-.6.6-.6z"/>
  <path fill="#98B3CA" fill-opacity=".2" d="M133.9 15.7v4.8c0 .8.7 1.5 1.5 1.5h4.3v.9c0 .9.8 1.7 1.7 1.7h14.2c.9 0 1.7-.8 1.7-1.7V22h4.3c.8 0 1.5-.7 1.5-1.5v-4.8c0-.8-.7-1.5-1.5-1.5h-4.3V13c0-.9-.8-1.7-1.7-1.7h-14.2c-.9 0-1.7.8-1.7 1.7v1.2h-4.3c-.8-.1-1.5.6-1.5 1.5zm7.1-.3V13c0-.2.2-.4.4-.4h14.2c.2 0 .4.2.4.4v2.4h5.5c.2 0 .3.1.3.3v4.8c0 .2-.1.3-.3.3H156v2.1c0 .2-.2.4-.4.4h-14.2c-.2 0-.4-.2-.4-.4v-2.1h-5.5c-.2 0-.3-.1-.3-.3v-4.8c0-.2.1-.3.3-.3h5.5z"/>
  <path fill="#98B3CA" fill-opacity=".2" d="M143.1 20.3c.1.4.5.7 1 .7h8.5c.5 0 .9-.3 1-.7l1.2-3.9c.1-.3 0-.7-.2-.9-.2-.3-.5-.4-.8-.4h-10.9c-.3 0-.6.2-.8.4-.2.3-.3.6-.2.9l1.2 3.9zm10.4-4l-1.1 3.5h-8.2l-1.1-3.5h10.4zm20.4 15H184c1 0 1.9-.9 1.9-1.9V15.1c0-1.1-.9-1.9-1.9-1.9h-.4V6.7c0-1.1-.9-1.9-1.9-1.9h-5.6c-1 0-1.9.9-1.9 1.9v6.5h-.3c-1 0-1.9.9-1.9 1.9v14.3c0 1.1.8 1.9 1.9 1.9zm1.5-24.6c0-.4.3-.7.7-.7h5.6c.4 0 .7.3.7.7v6.5h-7V6.7zm-2.2 8.4c0-.4.3-.7.7-.7H184c.4 0 .7.3.7.7v14.3c0 .4-.3.7-.7.7h-10.1c-.4 0-.7-.3-.7-.7V15.1z"/>
  <path fill="#98B3CA" fill-opacity=".2" d="M180.4 7h-3.1c-.6 0-1.2.5-1.2 1.2v1.1c0 .6.5 1.2 1.2 1.2h3.1c.6 0 1.2-.5 1.2-1.2V8.1c0-.6-.5-1.1-1.2-1.1zm0 2.2l-3 .1-.1-1.1 3.1-.1v1.1zM175 24.1l.1 1.1 3.1 3.1v.4c0 .3.3.6.6.6s.6-.3.6-.6V27l3.2-3.2v-1h.2c.5 0 .9-.4.9-.9v-1.6c0-.5-.4-.9-.9-.9h-1.6c-.5 0-.9.4-.9.9v1.6c0 .5.4.9.9.9h.1v.5l-2 2v-7.6l1.4 1.4c.1.1.3.2.4.2s.3-.1.4-.2c.2-.2.2-.6 0-.9l-2.8-2.8-2.8 2.8c-.2.2-.2.6 0 .9s.6.2.9 0l1.4-1.4v8.9l-1.9-1.9v-.6h.2c.5 0 .9-.4.9-.9v-1.6c0-.5-.4-.9-.9-.9H175c-.5 0-.9.4-.9.9v1.6c0 .5.4.9.9.9zm6.5-3.5h1v1h-1v-1zm-6.2 1.3h1v1h-1v-1zm-20.1 52.4c0-.3-.3-.6-.6-.6s-.6.3-.6.6v1.2c0 .3.3.6.6.6s.6-.3.6-.6v-1.2zm-.6 3.8c-.3 0-.6.3-.6.6v1.2c0 .3.3.6.6.6s.6-.3.6-.6v-1.2c0-.3-.2-.6-.6-.6zm2.8-1.6h-1.2c-.3 0-.6.3-.6.6s.3.6.6.6h1.2c.3 0 .6-.3.6-.6s-.2-.6-.6-.6zm-5.6 0c-.3 0-.6.3-.6.6s.3.6.6.6h1.2c.3 0 .6-.3.6-.6s-.3-.6-.6-.6h-1.2zM.6 81.5c.3 0 .6-.3.6-.6v-1.2c0-.4-.2-.7-.6-.7s-.6.3-.6.6v1.2c0 .4.3.7.6.7zm0 4.4c.3 0 .6-.3.6-.6V84c0-.3-.3-.6-.6-.6s-.6.3-.6.6v1.2c0 .4.3.7.6.7zm2.8-4.1H2.2c-.3 0-.6.3-.6.6s.3.6.6.6h1.2c.3 0 .6-.3.6-.6s-.2-.6-.6-.6zM211 83h1.2c.3 0 .6-.3.6-.6s-.3-.6-.6-.6H211c-.3 0-.6.3-.6.6s.2.6.6.6zm-90.3-30.4c.3 0 .6-.3.6-.6v-1.2c0-.3-.3-.6-.6-.6s-.6.3-.6.6V52c0 .4.3.6.6.6zm-.6 3.8c0 .3.3.6.6.6s.6-.3.6-.6v-1.2c0-.3-.3-.6-.6-.6s-.6.3-.6.6v1.2zm3.5-2.2c.3 0 .6-.3.6-.6s-.3-.6-.6-.6h-1.2c-.3 0-.6.3-.6.6s.3.6.6.6h1.2zM118 53c-.3 0-.6.3-.6.6s.3.6.6.6h1.2c.3 0 .6-.3.6-.6s-.3-.6-.6-.6H118zm52.8-6.9c.7 0 1.2-.5 1.2-1.2s-.5-1.2-1.2-1.2-1.2.5-1.2 1.2c0 .6.6 1.2 1.2 1.2z"/>
  <path fill="#98B3CA" fill-opacity=".2" d="M169.4 53.2h.7v1.4c0 .4.4.8.8.8h4.4c.4 0 .8-.4.8-.8v-1.4h17v1.4c0 .4.4.8.8.8h4.4c.4 0 .8-.4.8-.8v-1.4h.1c1.1 0 2-.9 2-2v-7.9c0-1.1-.9-2-2-2h-.2v-6.7c0-.3-.3-.6-.6-.6l-.6-13.7c0-.3-.3-.6-.6-.6h-.9c-.3 0-.6.3-.6.6L195 34c-.3 0-.6.3-.6.6v6.7h-25c-1.1 0-2 .9-2 2v7.9c0 1.1.9 2 2 2zm5.5.9h-3.5v-.9h3.5v.9zm-1.1-2.1v-3.7c0-.4.4-.8.8-.8h20.1c.4 0 .8.4.8.8V52h-21.7zm24.1 2.1h-3.5v-.9h3.5v.9zm-1.2-29.9l.4 9.8h-.9l.5-9.8zm-1.1 11.1h2.2v1.3h-2.2v-1.3zm0 2.6h2.2V39h-2.2v-1.1zm0 2.3h2.2v1.1h-2.2v-1.1zm-27 3.1c0-.4.4-.8.8-.8h29.8c.4 0 .8.4.8.8v7.9c0 .4-.4.8-.8.8h-2.6v-3.7c0-1.1-.9-2-2-2h-20.1c-1.1 0-2 .9-2 2V52h-3.1c-.4 0-.8-.4-.8-.8v-7.9z"/>
  <path fill="#98B3CA" fill-opacity=".2" d="M181.9 48.6c-.3 0-.6.3-.6.6v1.1c0 .3.3.6.6.6s.6-.3.6-.6v-1.1c0-.3-.3-.6-.6-.6zm-4.5 0c-.3 0-.6.3-.6.6v1.1c0 .3.3.6.6.6s.6-.3.6-.6v-1.1c0-.3-.3-.6-.6-.6zm9.2 0c-.3 0-.6.3-.6.6v1.1c0 .3.3.6.6.6s.6-.3.6-.6v-1.1c0-.3-.3-.6-.6-.6zm4.6 0c-.3 0-.6.3-.6.6v1.1c0 .3.3.6.6.6s.6-.3.6-.6v-1.1c.1-.3-.2-.6-.6-.6zM190 81.3c.2 0 .4 0 .5-.1.1-.1.2-.3.2-.5h.7c0 .2.1.4.2.5.1.1.3.1.4.1h.1c3.1-.5 5.3-3.1 5.3-6.2s-2.2-5.7-5.3-6.2c-.2 0-.4.1-.5.2-.1.1-.2.2-.2.4h-.7c0-.2-.1-.3-.2-.4-.1-.1-.3-.2-.5-.1-3.1.5-5.3 3.1-5.3 6.2s2.3 5.6 5.3 6.1zm-.3-11.2c.2.3.5.5.9.5h1c.4 0 .7-.2.9-.5 2.2.6 3.7 2.6 3.7 4.9 0 2.3-1.5 4.3-3.7 4.9-.2-.3-.5-.5-.9-.5h-1c-.4 0-.7.2-.9.5-2.2-.6-3.7-2.6-3.7-4.9 0-2.3 1.5-4.3 3.7-4.9z"/>
  <path fill="#98B3CA" fill-opacity=".2" d="M201.2 90.9v-4.1h-22.3c-.4 0-.7-.3-.7-.7v-1.7h19.3c1.7 0 3.2-1.4 3.2-3.2V68.1c0-1.8-1.4-3.2-3.2-3.2h-27c-1.7 0-3.2 1.4-3.2 3.2v13.1c0 1.8 1.4 3.2 3.2 3.2h3.7v1.7c0 2.6 2.1 4.8 4.7 4.8h22.3zm-26.3-21c.4-.1.8-.2 1.3-.2s.9.1 1.3.2v1.4h-2.6v-1.4zm-.5 2.6h3.5c.4 0 .8-.4.8-.9v-1.2c1.5.9 2.6 2.5 2.6 4.4 0 1.8-.9 3.4-2.4 4.3V77c0-1-.8-1.7-1.7-1.7h-1.9c-1 0-1.7.8-1.7 1.7v2.1c-1.5-.9-2.4-2.5-2.4-4.3 0-1.9 1-3.5 2.6-4.4v1.2c-.2.5.2.9.6.9zm3.2 5.1h-2.9V77c0-.3.2-.5.5-.5h1.9c.3 0 .5.2.5.5v.6zm-2.9 3.2v-2h2.9v2c0 .3-.2.5-.5.5h-1.9c-.3 0-.5-.3-.5-.5zm-4.2 2.4c-1.1 0-1.9-.9-1.9-1.9V68.1c0-1.1.9-1.9 1.9-1.9h27c1.1 0 1.9.9 1.9 1.9v13.1c0 1.1-.9 1.9-1.9 1.9h-19.3V82c.4-.3.7-.8.7-1.3v-.2c2.2-1 3.6-3.3 3.6-5.7 0-3.5-2.8-6.3-6.3-6.3s-6.3 2.8-6.3 6.3c0 2.4 1.3 4.6 3.4 5.7.1 0 .1 0 .2.1v.2c0 .5.3 1 .6 1.3v1.1h-3.6zm4.9 2.9v-3.6h1.6v3.6c0 1.1.9 1.9 1.9 1.9H200v1.6h-21.1c-2 0-3.5-1.6-3.5-3.5zM86.2 8.4c-.2.3-.2.6 0 .9l2.3 2.3c.1.1.3.2.4.2s.3-.1.4-.2l5-5c.2-.2.2-.6 0-.9s-.6-.2-.9 0l-4.6 4.6-1.9-1.9c-.1-.2-.5-.2-.7 0zM201 102.6c-3.2 0-5.8 2.6-5.8 5.8 0 3.2 2.6 5.8 5.8 5.8 3.2 0 5.8-2.6 5.8-5.8 0-3.2-2.6-5.8-5.8-5.8zm0 10.4c-2.5 0-4.6-2.1-4.6-4.6 0-2.5 2-4.6 4.6-4.6 2.5 0 4.6 2.1 4.6 4.6-.1 2.5-2.1 4.6-4.6 4.6z"/>
  <path fill="#98B3CA" fill-opacity=".2" d="M201 105.2c-1.8 0-3.2 1.5-3.2 3.3 0 1.8 1.5 3.3 3.2 3.3 1.8 0 3.2-1.5 3.2-3.3 0-1.9-1.4-3.3-3.2-3.3zm0 5.2c-1.1 0-2-.9-2-2s.9-2 2-2 2 .9 2 2-.9 2-2 2zM14.6 50.3v-8.6c.8-.5 1.4-1.3 1.4-2.4v-1.7l-1.1-2.8h2.6l-.8 2.5v.6c0 1.8 1.5 3.4 3.3 3.4h.6v-9.8c.4-.3.6-.8.6-1.3v-3.6c.9-.5 1.5-1.4 1.5-2.5V8.6H2.3v15.6c0 1.1.6 2.1 1.6 2.5v3.5c0 .5.2.9.5 1.2v9.9H5c1.8 0 3.3-1.5 3.3-3.4 0-.2-.1-.6-.1-.7L7.5 35v-.2h2.6L9 37.4v1.9c0 1 .6 1.9 1.4 2.4v8.6c0 1.2.9 2.1 2.1 2.1s2.1-.9 2.1-2.1zm3.7-40.5h3.3v14.3c0 .9-.7 1.6-1.6 1.6s-1.6-.7-1.6-1.6V9.8zm-7.4 0h3.3v14.3c0 .9-.7 1.6-1.6 1.6-.9 0-1.6-.7-1.6-1.6V9.8zM3.5 24.1V9.8h3.3v14.3c0 .9-.7 1.6-1.6 1.6-.9.1-1.7-.7-1.7-1.6zm1.6 6.1V27h.1C6.8 27 8 25.7 8 24.1V9.8h1.6v14.3c0 1.6 1.3 2.9 2.9 2.9 1.6 0 2.9-1.3 2.9-2.9V9.8H17v14.3c0 1.6 1.3 2.9 2.9 2.9h.1v3.2c0 .3-.2.5-.5.5H5.6c-.3 0-.5-.2-.5-.5zm5.2 9.1v-1.5l1.2-2.9c.1-.3.1-.6-.1-.9-.2-.2-.4-.4-.7-.4H6.3v1.5l.7 2.3v.4c0 1-.6 1.8-1.5 2v-8h13.8v8c-.9-.3-1.5-1.1-1.5-2v-.2l.8-2.4v-1.7h-4.4c-.3 0-.6.1-.7.4-.2.3-.2.6-.1.9l1.2 2.9v1.5c0 .8-.7 1.5-1.5 1.5h-1.6c-.6.1-1.2-.5-1.2-1.4zm3.1 11c0 .5-.4.9-.9.9s-.9-.4-.9-.9V42h1.8v8.3zm73.1-26.9c.1.1 1.1.6 1.8 1 .5.2.9.5 1 .5.1.1.2.1.3.1.1 0 .2 0 .3-.1 0 0 2.5-1.4 2.7-1.5 6.3-3.9 9.6-9.1 9.6-14.9V0H101v8.5c0 6.8-4.9 11.3-9 13.9-.2.1-1.7 1-2.4 1.3-.2-.1-.4-.2-.7-.4-.7-.4-1.6-.9-1.8-.9-4.1-2.6-9-7.1-9-13.9V0h-1.2v8.5c-.1 5.8 3.3 11 9.6 14.9zm3.5 89.4c-.3-.2-.7-.2-.9 0-.3.2-1.9 1.7-3.5 2.3h2.5c.6-.4 1.1-.8 1.5-1.1.3.3.8.7 1.5 1.1h2.6c-1.9-.6-3.6-2.2-3.7-2.3z"/>
  <path fill="#98B3CA" fill-opacity=".2" d="M101.5 112.5s-3 .3-6.1-.7c-2.7-.9-5.4-3.5-5.5-3.6-.3-.3-.8-.2-1 0-.3.3-2.9 2.7-5.4 3.5-3 1-6 .7-6.1.7-.2 0-.3 0-.5.2-.1.1-.2.3-.2.5v2.1h1.2v-1.4c1.1 0 3.5 0 5.9-.8 2.4-.8 4.7-2.7 5.5-3.5.9.8 3.2 2.7 5.5 3.5 2.4.8 4.8.8 5.9.8v1.4h1.2v-2.1c0-.2-.1-.3-.2-.5.2 0 0-.1-.2-.1zM87.3 19.3c.1 0 .8.4 1.4.7l.5.3c.1.1.2.1.4.1.1 0 .3 0 .4-.1.4-.2 1.7-1 1.8-1 4.5-2.8 6.9-6.5 6.9-10.7V1.2c0-.2-.1-.3-.2-.5-.1-.1-.3-.2-.5-.2 0 0-2.1.2-4.2-.5-.1 0-.2-.1-.2-.1H91c.7.5 1.5 1 2.4 1.3 1.6.5 3.2.6 4 .6v6.8c0 4.7-3.4 7.8-6.3 9.6-.1.1-1.1.6-1.6.9l-.3-.1c-.5-.3-1.2-.6-1.3-.7-2.9-1.8-6.3-4.9-6.3-9.6V1.8c.9 0 2.4 0 4-.6.9-.2 1.8-.7 2.5-1.2h-2.5c-.1 0-.2.1-.2.1-2.1.7-4.2.5-4.2.5-.2 0-.3 0-.5.2-.1.1-.2.3-.2.5v7.4c-.1 4.1 2.3 7.8 6.8 10.6zM136.5 0h-1.2v2.3h-19V0h-1.2v3.5h21.4zm-21.4 106.6h9.4v-9.4h-9.4v9.4zm1.2-8.1h6.9v7h-6.9v-7zm16.1 9.8c-.3 0-.6.3-.6.6v4.3l-5.8-5.9c-.2-.2-.6-.2-.9 0s-.2.6 0 .9l5.8 5.8h-4.2c-.3 0-.6.3-.6.6s.3.6.6.6h6.3v-6.3c0-.4-.2-.6-.6-.6z"/>
  <path fill="#98B3CA" fill-opacity=".2" d="M126.4 97.8c0 .3.3.6.6.6h8.3v16.8h1.2v-18H127c-.4 0-.6.3-.6.6zm-10.7 10.6c-.3 0-.6.3-.6.6v6.2h1.2V109c0-.3-.2-.6-.6-.6zm42.2-60.6c0-6.1-5-11.1-11.1-11.1s-11.1 5-11.1 11.1 5 11.1 11.1 11.1 11.1-5 11.1-11.1zm-11.1 9.9c-5.4 0-9.9-4.4-9.9-9.9s4.4-9.9 9.9-9.9c5.4 0 9.9 4.4 9.9 9.9s-4.5 9.9-9.9 9.9z"/>
  <circle fill="#98B3CA" fill-opacity=".1" cx="142" cy="47.6" r="1.2"/>
  <path fill="#98B3CA" fill-opacity=".2" d="M143.3 42.7c-.7 0-1.2.6-1.2 1.2s.6 1.2 1.2 1.2c.7 0 1.2-.6 1.2-1.2s-.5-1.2-1.2-1.2zm-.1 7.7c-.7 0-1.2.6-1.2 1.2 0 .7.6 1.2 1.2 1.2s1.2-.6 1.2-1.2c0-.7-.5-1.2-1.2-1.2zm6.9 0c-.7 0-1.2.6-1.2 1.2 0 .7.6 1.2 1.2 1.2.7 0 1.2-.6 1.2-1.2.1-.7-.5-1.2-1.2-1.2zm1.3-4c-.7 0-1.2.6-1.2 1.2s.6 1.2 1.2 1.2c.7 0 1.2-.6 1.2-1.2s-.5-1.2-1.2-1.2zm-1.3-1.3c.7 0 1.2-.6 1.2-1.2 0-.7-.6-1.2-1.2-1.2-.7 0-1.2.6-1.2 1.2 0 .7.6 1.2 1.2 1.2zm-2.5-.5h-1.7c-.6 0-1.1.5-1.1 1.1v3.8c0 .6.5 1.1 1.1 1.1h1.7c.6 0 1.1-.5 1.1-1.1v-3.8c0-.6-.5-1.1-1.1-1.1zm-.1 4.8l-1.6.1-.1-3.7 1.6-.1v3.7z"/>
  <path fill="#98B3CA" fill-opacity=".2" d="M148.2 39.3l-.7-.1.1 1.8-1.6.1v-1.9l-.7.1c-3.9.8-6.8 4.3-6.8 8.4s2.9 7.6 6.8 8.4l.7.1-.1-1.9 1.6-.1v2l.7-.1c4.2-.7 7.2-4.2 7.2-8.4s-3.1-7.7-7.2-8.4zm.5 15.5v-.5c0-.6-.5-1.1-1.1-1.1h-1.7c-.6 0-1.1.5-1.1 1.1v.4c-3-.9-5.1-3.8-5.1-7s2.1-6 5.1-7v.4c0 .6.5 1.1 1.1 1.1h1.7c.6 0 1.1-.5 1.1-1.1v-.5c3.2.8 5.4 3.7 5.4 7s-2.2 6.3-5.4 7.2zM0 105.2v1.8c.6.6 1 1.1 1.2 1.4-.3.3-.7.8-1.2 1.4v1.8c1.5-1.5 2.4-2.7 2.5-2.8.2-.2.2-.5 0-.7-.1-.2-1-1.4-2.5-2.9zM208.5 0h-2.7c-1.5.7-3.1 1.1-4.8 1.1-1.7 0-3.3-.4-4.8-1.1h-2.7c2.2 1.3 4.8 2.3 7.5 2.3s5.3-1 7.5-2.3zM201 99.3c-8.1 0-14.4 8.4-14.7 8.7-.2.2-.2.5 0 .7.2.2 3 3.9 7.2 6.4h2.7c-4.3-1.9-7.6-5.6-8.6-6.8 1.3-1.6 6.9-7.9 13.4-7.9 5.2 0 9.9 4 12.2 6.5v-1.8c-2.7-2.4-7.1-5.8-12.2-5.8zm4.8 15.9h2.7c1.9-1.1 3.4-2.5 4.6-3.6v-1.8c-1.5 1.6-4.1 4-7.3 5.4zM57.1 10.9l-1.2 7.6 7.6-1.2-3-3c1-1.7 1.5-3.7 1.5-5.7 0-3.5-1.6-6.6-4-8.7h-2.1c2.9 1.8 4.8 5 4.8 8.7 0 1.7-.4 3.3-1.2 4.8l-2.4-2.5zm3.8 5.6l-3.6.6.6-3.6 3 3zM38.8 8.8c0 6.3 5.1 11.5 11.5 11.5.3 0 .6-.3.6-.6s-.3-.6-.6-.6c-5.6 0-10.2-4.6-10.2-10.3 0-1.7.4-3.3 1.2-4.8l2.5 2.5 1-6.6h-6.4l-1 .2 3 3c-1 1.8-1.6 3.7-1.6 5.7zM39.9 1l3.6-.6-.6 3.6-3-3zm4.9 114.2l.2-1.1-6.6 1.1zm5.1-2.2c0 .3.3.6.6.6 2 0 3.8.6 5.4 1.6H58c-2-1.7-4.6-2.8-7.5-2.8-.3 0-.6.3-.6.6z"/>
</svg>